<svg width="25" height="20" viewBox="0 0 25 20" fill="none" xmlns="http://www.w3.org/2000/svg">
<path d="M0.892857 3.67347H24.1071C24.6003 3.67347 25 3.30801 25 2.85714V0.816327C25 0.365459 24.6003 0 24.1071 0H0.892857C0.399721 0 0 0.365459 0 0.816327V2.85714C0 3.30801 0.399721 3.67347 0.892857 3.67347ZM0.892857 11.8367H24.1071C24.6003 11.8367 25 11.4713 25 11.0204V8.97959C25 8.52872 24.6003 8.16327 24.1071 8.16327H0.892857C0.399721 8.16327 0 8.52872 0 8.97959V11.0204C0 11.4713 0.399721 11.8367 0.892857 11.8367ZM0.892857 20H24.1071C24.6003 20 25 19.6345 25 19.1837V17.1429C25 16.692 24.6003 16.3265 24.1071 16.3265H0.892857C0.399721 16.3265 0 16.692 0 17.1429V19.1837C0 19.6345 0.399721 20 0.892857 20Z" fill="#780A28"/>
</svg>
